<svg xmlns="http://www.w3.org/2000/svg" viewBox="0 0 1024 1024"><defs><style>.a{fill:#1d1d1b;}.b{fill:#fff;}.c{fill:#9d9d9c;}.d{fill:#575756;}</style></defs><circle class="a" cx="512" cy="512" r="512"/><path class="b" d="M784.85,489.64A22.31,22.31,0,1,0,807.16,512,22.3,22.3,0,0,0,784.85,489.64Z"/><path class="b" d="M616.12,346.07s-47.47-68-146.56-96.37C454,311.23,394.23,399.57,385.7,405.83c-13.34,8.19-49.66,33-83.19,69.1C293,464.41,236.23,351.58,113.17,329.21c26.77,71.92,35.16,155.42,70.32,188.58-39.56,38-37.11,98.81-70.32,186.59,89.9-6.39,186.35-151.17,186.35-151.17s87.87,100.3,97.33,149.17c26.23-9.45,59.52-31.87,62.91-30.26,12.29,5.23,33.8,12,33.8,12s6.37,51-16.81,90.19c102.69-12.38,125.46-74.85,126.93-73,35.14.75,211.21-.91,331.67-168C818.82,345.61,616.12,346.07,616.12,346.07ZM328.5,514.52S456,347.81,685.34,402.5c-58.44,66-56.51,176.64,10.16,241.75C456.43,700.41,328.5,514.52,328.5,514.52ZM744.69,628C659.4,565,681.57,460.28,731.51,417.89c100.29,42.39,146.71,113,146.71,113S833.5,590.33,744.69,628Z"/><path class="c" d="M710,592.53A149,149,0,0,0,744.7,628c76.65-32.53,120.43-81.22,131-93.95A541.26,541.26,0,0,1,710,592.53Z"/><path class="c" d="M613.9,601a542.31,542.31,0,0,1-277-75.62c31.92,38.87,154.92,166.75,358.64,118.9a169.21,169.21,0,0,1-33-45.46C646.45,600.21,630.26,601,613.9,601Z"/><path class="d" d="M662.42,598.76a180.67,180.67,0,0,1-17.36-56.67,546.66,546.66,0,0,1-113.91,12,543.5,543.5,0,0,1-202.09-38.72c1.08,1.5,3.68,5,7.76,10a542.31,542.31,0,0,0,277,75.62C630.23,600.93,646.42,600.17,662.42,598.76Z"/></svg>